<svg xmlns="http://www.w3.org/2000/svg" width="26" height="26" viewBox="0 0 26 26">
    <path fill="#FFF" fill-rule="evenodd" d="M25.681 24.153l-6.25-6.25a10.919 10.919 0 0 0 2.483-6.946C21.914 4.908 17.006 0 10.957 0 4.903 0 0 4.908 0 10.957s4.903 10.957 10.957 10.957a10.9 10.9 0 0 0 6.94-2.478l6.251 6.245c.425.425 1.11.425 1.533 0a1.076 1.076 0 0 0 0-1.528zm-14.724-4.42c-4.844 0-8.781-3.937-8.781-8.776 0-4.84 3.937-8.781 8.781-8.781 4.84 0 8.782 3.942 8.782 8.781 0 4.84-3.943 8.776-8.782 8.776z"/>
</svg>
